<svg id="Capa_1" data-name="Capa 1" xmlns="http://www.w3.org/2000/svg" width="506" height="506" viewBox="0 0 506 506"><defs><style>.cls-1{fill:#5b422d;}.cls-2{fill:#64a43a;stroke:#64a43a;}.cls-3{fill:#5a9a30;stroke:#5a9a30;}.cls-4{fill:#4f3624;stroke:#4f3624;}.cls-5{fill:#3b6121;stroke:#3b6121;}</style></defs><title>icon</title><path d="M434.979,188.186c-46.0258-21.5129-107.8643-35.3922-173.9407-39.209-10.5419-.694-20.81-.9253-30.5714-.9253C279.339,82.5878,331.7109,38.6368,366.1828,37.2489c6.789-.3008,12.5448,1.2722,17.1411,4.5339,14.8851,10.5945,19.0807,40.8976,11.4906,83.0443-.8434,5.783,2.53,11.4041,7.59,12.4913,5.271,1.1566,10.3311-2.5445,11.3853-8.3276,9.4877-52.7412,2.53-88.9661-19.8187-104.9735-8.0118-5.7368-17.71-8.4432-28.4631-8.0037-43.2216,1.7811-104.1536,53.2038-160.0254,132.3157a497.6165,497.6165,0,0,0-68.1426,6.6389C123.72,87.9545,129.1174,39.84,149.8638,28.2736a22.5453,22.5453,0,0,1,9.6353-2.8684c14.6953-1.2491,34.9989,9.1372,57.1368,29.3778a9.0426,9.0426,0,0,0,13.62-1.3879,11.3049,11.3049,0,0,0-1.265-14.92c-26.5655-24.15-51.0648-35.9473-71.0943-34.3281a44.1165,44.1165,0,0,0-16.93,5.0891c-25.09,14.0412-35.21,53.8284-28.8847,111.9132,1.4758,12.0287,3.3734,24.5663,6.1143,37.474C49.02,173.7978,4.9554,204.1934,3.0578,242.4539c-1.265,27.0646,18.2375,52.8338,56.5044,74.5317,4.7228,2.66,10.5841.694,13.0719-4.6264,2.4036-5.1816.6325-11.5661-4.2167-14.2494C37.846,280.8532,21.4007,261.376,22.3916,243.5642c1.0542-24.9826,37.36-50.6593,100.3585-64.3072a670.4683,670.4683,0,0,0,22.138,71.4782c-21.4633,43.6734-37.0231,86.6761-45.056,124.9135-11.8068,57.0207-5.4817,97.6175,18.132,114.4577a44.3022,44.3022,0,0,0,26.2915,8.0963c19.7132,0,43.58-10.6408,70.5672-31.7373a11.26,11.26,0,0,0,2.3192-14.8045c-3.0993-4.7653-9.1293-5.9219-13.4936-2.4521-32.5533,25.5148-59.9621,34.0505-75.1,23.2015-16.0237-11.45-19.5236-44.9457-9.6985-91.9733,6.7467-32.0611,19.1229-67.7771,36.011-104.5572q6.3251,15.1979,13.2827,30.3725c30.0443,64.6774,66.8354,120.9116,103.5211,158.3394C300.8865,494.4321,328.0423,510,350.4122,510a42.3691,42.3691,0,0,0,20.5777-5.1585c24.1409-13.5322,34.5773-51.1219,29.4751-105.8294-4.7228-51.1914-22.3488-113.5787-49.6311-175.8041-2.3192-5.251-8.0962-7.4717-12.8611-4.9966a11.0974,11.0974,0,0,0-4.6384,14.1569c56.7152,129.5861,60.7211,235.7163,28.8847,253.528C328.696,504.7027,247.861,431.42,185.3267,296.6756c-7.1685-15.1515-13.43-30.0718-18.9754-44.645,7.1685-14.0643,14.7586-28.2212,23.0867-42.3318,8.3281-13.9718,16.9935-27.4809,25.8065-40.3655h8.3069c11.3853,0,23.74.2313,36.5592,1.11,137.6768,7.9343,231.3939,59.2182,229.4753,100.2546-.8434,17.6961-19.4814,35.5772-51.128,49.04-4.9336,2.2207-7.4215,8.3276-5.4818,13.7868a9.6646,9.6646,0,0,0,8.9817,6.7545,9.1414,9.1414,0,0,0,3.521-.6939c40.1645-17.1178,62.197-40.62,63.462-67.7771,1.4758-30.7658-24.668-60.3749-73.7931-83.2757v-.2313ZM160.9961,203.9726c-5.6926,9.6-10.9636,19.13-16.108,28.7764-6.1564-17.7655-11.2165-34.9295-15.2435-51.2377A486.2437,486.2437,0,0,1,178.348,175.96q-8.8551,13.5324-17.2887,27.99v-.2313Z" transform="translate(-3 -4)"/><path class="cls-1" d="M207.0535,237.9017l40.8,12.39v61.2l-40.8-18Z" transform="translate(-3 -4)"/><path class="cls-2" d="M207.1415,243.7545l2.537,1.1193v-3.8221l2.55,1.125v3.825l5.1,2.25-.001,3.8247,2.551,1.1255-.001-11.4755,2.551,1.1225-.0045,7.6488,2.5545,1.1269.0005-3.8259,2.5495,1.1249.0018,7.65,2.5482,1.1243.0106-3.8256,2.5394,1.1239v3.824l2.55,1.125v-3.825l2.55,1.128-.0015-3.8253,2.5515,1.1257-.0012,3.8244,5.1012,2.25-.0015-3.8256,2.5515,1.1257v-7.65l-40.8-18Z" transform="translate(-3 -4)"/><path class="cls-3" d="M207.1391,232.2017l40.8,18,40.65-18-40.8-18Z" transform="translate(-3 -4)"/><path class="cls-4" d="M288.5785,239.8517l-40.8,10.38v61.2l40.8-18Z" transform="translate(-3 -4)"/><path class="cls-5" d="M288.5785,232.3748l.0234,7.6067-2.5734,1.1353.0107,3.8506-4.9607,2.1885-.0109-3.7951-2.5391,1.1222,0,3.8241-2.55,1.1251,0,3.825-2.55,1.1249,0-3.8249-2.55,1.1249-.03,3.84-2.52,1.113,0-7.6834-2.7005,1.1977.0012,3.8013-2.4012,1.0607-.0946-7.5745-2.4554,1.0833-.001,11.4961-2.549,1.1245v-3.8248l-5.1,2.25v-3.825l-2.55,1.125v3.825l-2.55,1.125-.0006-11.4981Z" transform="translate(-3 -4)"/></svg>